<svg width="36" height="36" viewBox="0 0 36 36" fill="none" xmlns="http://www.w3.org/2000/svg">
<path d="M19.4993 29.592C24.4839 29.592 28.5248 25.5511 28.5248 20.5665C28.5248 15.5819 24.4839 11.541 19.4993 11.541C14.5146 11.541 10.4738 15.5819 10.4738 20.5665C10.4738 25.5511 14.5146 29.592 19.4993 29.592Z" fill="url(#paint0_radial)"/>
<path d="M21.0885 16.9868C17.7541 16.9868 15.0495 19.7005 15.0495 23.0498C15.0495 26.3991 17.7541 29.1128 21.0885 29.1128C24.4228 29.1128 27.1274 26.3991 27.1274 23.0498C27.1274 19.7005 24.4258 16.9868 21.0885 16.9868ZM21.0885 27.8594C18.4168 27.8594 16.2519 25.6945 16.2519 23.0228C16.2519 20.3511 18.4168 18.1862 21.0885 18.1862C23.7601 18.1862 25.925 20.3511 25.925 23.0228C25.925 25.6945 23.7601 27.8594 21.0885 27.8594Z" fill="black"/>
<path d="M18 6C11.3733 6 6 11.3733 6 18C6 24.6267 11.3733 30 18 30C24.6267 30 30 24.6267 30 18C30 11.3733 24.6267 6 18 6ZM18 28.4618C12.2219 28.4618 7.53823 23.7781 7.53823 18C7.53823 12.2219 12.2219 7.53823 18 7.53823C23.7781 7.53823 28.4588 12.2219 28.4588 18C28.4588 23.7781 23.7751 28.4618 18 28.4618Z" fill="black"/>
<defs>
<radialGradient id="paint0_radial" cx="0" cy="0" r="1" gradientUnits="userSpaceOnUse" gradientTransform="translate(20.7026 22.4649) scale(10.9763)">
<stop offset="0.541667" stop-color="white"/>
<stop offset="0.868" stop-color="#979797"/>
</radialGradient>
</defs>
</svg>
