<svg width="36" height="36" viewBox="0 0 36 36" fill="none" xmlns="http://www.w3.org/2000/svg">
<path fill-rule="evenodd" clip-rule="evenodd" d="M6.43733 18.8421H8.25477V20.1053C7.89918 20.4 7.42507 20.7368 6.7139 20.7368C5.21253 20.7368 4.18529 19.5579 4.18529 17.9579C4.18529 16.3158 5.60763 15.2632 6.67439 15.2632C7.74114 15.2632 8.33379 16.0632 8.33379 16.0632L9.16349 15.0526C9.16349 15.0526 7.85967 14 6.7139 14C5.52861 14 3 14.6737 3 18.0421C3 20.9053 5.13351 22 6.67439 22C8.21526 22 9.40055 20.7789 9.40055 20.7789V17.5789H6.39782L6.43733 18.8421ZM17.8161 19.5579L15.643 14.2527H13.9836V21.8316H15.1294V16.3579L17.3024 21.8316H18.2902L20.4632 16.3158V21.8316H21.688V14.2527H19.8706L17.8161 19.5579ZM30.6567 14.4211C31.2098 14.6737 32 15.2632 32 16.4843C32 18.3369 30.2616 18.8422 30.2616 18.8422L32 21.8737H30.4197L28.7207 18.8843H27.3774V21.8737H26.1921V14.2527H29.8665C30.1431 14.2527 30.4197 14.2948 30.6567 14.4211ZM27.4169 15.3895V17.579H29.7875C30.3406 17.579 30.8148 17.0737 30.8148 16.4843C30.8148 15.8948 30.3406 15.3895 29.7875 15.3895H27.4169Z" fill="black"/>
</svg>
