<svg width="36" height="36" viewBox="0 0 36 36" fill="none" xmlns="http://www.w3.org/2000/svg">
<path d="M17.7954 8C18.6871 8 19.5277 8.15792 20.3149 8.47133C21.0753 8.78231 21.758 9.19776 22.3095 9.74441C22.861 10.2911 23.3056 10.9422 23.6215 11.671C23.9106 12.3222 24.0685 13.0292 24.0928 13.7799H21.1288C21.1288 13.3912 21.051 13.0267 20.9198 12.6866C20.7352 12.2736 20.4995 11.9043 20.2104 11.6224C19.9213 11.309 19.5544 11.0758 19.1341 10.9155C18.7138 10.7332 18.2692 10.6579 17.7954 10.6579C17.2439 10.6579 16.7459 10.7332 16.3013 10.8912C15.881 11.0442 15.4874 11.2532 15.174 11.5155C14.8581 11.7731 14.6224 12.0622 14.4645 12.3999C14.2799 12.7376 14.2021 13.0753 14.2021 13.4397C14.2021 14.1467 14.4645 14.6934 14.9626 15.1088C15.4874 15.5267 16.1166 15.8644 16.9038 16.1487C17.6642 16.4111 18.5049 16.6953 19.4232 16.9577C20.3149 17.2153 21.1555 17.553 21.9427 17.9976C22.7031 18.4397 23.3324 19.0155 23.8571 19.742C24.3552 20.449 24.6176 21.3844 24.6176 22.5554C24.6176 23.2624 24.4597 23.9354 24.1463 24.5865C23.8304 25.2376 23.3858 25.811 22.8076 26.3309C22.2051 26.829 21.4956 27.2444 20.6307 27.5554C19.7901 27.8421 18.8474 28 17.7979 28C16.7483 28 15.8032 27.8421 14.9383 27.5554C14.0977 27.2444 13.3907 26.829 12.8124 26.2823C12.2342 25.7357 11.7896 25.0845 11.4738 24.3557C11.1579 23.6025 11 22.7692 11 21.8824H13.9908C13.9908 22.4291 14.0685 22.898 14.2264 23.3426C14.4111 23.7556 14.6467 24.1249 14.9602 24.4359C15.3003 24.7201 15.6939 24.9534 16.1676 25.1137C16.639 25.2668 17.1905 25.3445 17.793 25.3445C18.3955 25.3445 18.947 25.2668 19.4184 25.1356C19.9164 24.9825 20.31 24.7736 20.6259 24.5112C20.9417 24.2512 21.1774 23.9645 21.3353 23.6001C21.4932 23.2648 21.5709 22.898 21.5709 22.5092C21.5709 21.7779 21.3086 21.207 20.7838 20.7867C20.2857 20.3955 19.6297 20.0578 18.8693 19.7736C18.1088 19.4845 17.2682 19.2269 16.3766 18.9645C15.4582 18.707 14.62 18.3401 13.8571 17.9247C13.07 17.5068 12.4407 16.9359 11.9159 16.2289C11.3912 15.5292 11.1555 14.6132 11.1555 13.4422C11.1555 12.7425 11.3134 12.0914 11.6268 11.4135C11.967 10.7624 12.414 10.1866 12.9898 9.6691C13.568 9.17104 14.2483 8.75559 15.0622 8.44218C15.8785 8.16035 16.7726 8 17.7954 8V8Z" fill="black"/>
</svg>
