<svg width="36" height="36" viewBox="0 0 36 36" fill="none" xmlns="http://www.w3.org/2000/svg">
<path d="M26 26.1569H23.2174V12.8512H10.2317V10H26V26.1569Z" fill="black"/>
<path d="M15.6815 26.394C14.5578 26.394 13.4593 26.0525 12.5249 25.4128C11.5906 24.7731 10.8624 23.8638 10.4324 22.8C10.0024 21.7362 9.88994 20.5657 10.1092 19.4364C10.3285 18.3071 10.8697 17.2698 11.6644 16.4557C12.4591 15.6416 13.4715 15.0872 14.5737 14.8627C15.6758 14.6382 16.8182 14.7536 17.8564 15.1944C18.8945 15.6352 19.7818 16.3815 20.4059 17.339C21.0301 18.2964 21.3632 19.422 21.363 20.5735C21.3612 22.1168 20.762 23.5963 19.6968 24.6875C18.6317 25.7787 17.1877 26.3924 15.6815 26.394V26.394ZM15.6815 17.6032C15.1082 17.6032 14.5477 17.7774 14.071 18.1038C13.5943 18.4302 13.2227 18.8941 13.0033 19.4368C12.7839 19.9795 12.7265 20.5768 12.8384 21.1529C12.9502 21.7291 13.2263 22.2584 13.6317 22.6738C14.0371 23.0892 14.5536 23.3721 15.116 23.4867C15.6783 23.6013 16.2611 23.5425 16.7908 23.3176C17.3205 23.0928 17.7733 22.7121 18.0918 22.2237C18.4103 21.7352 18.5803 21.1609 18.5803 20.5735C18.5793 19.786 18.2735 19.0311 17.7301 18.4743C17.1867 17.9175 16.45 17.6043 15.6815 17.6032" fill="black"/>
</svg>
