<svg width="36" height="36" viewBox="0 0 36 36" fill="none" xmlns="http://www.w3.org/2000/svg">
<path d="M18 6C15.6266 6 13.3066 6.70379 11.3332 8.02236C9.35977 9.34094 7.8217 11.2151 6.91345 13.4078C6.0052 15.6005 5.76756 18.0133 6.23058 20.3411C6.6936 22.6689 7.83649 24.807 9.51472 26.4853C11.193 28.1635 13.3311 29.3064 15.6589 29.7694C17.9867 30.2324 20.3995 29.9948 22.5922 29.0865C24.7849 28.1783 26.6591 26.6402 27.9776 24.6668C29.2962 22.6934 30 20.3734 30 18C30 14.8174 28.7357 11.7652 26.4853 9.51472C24.2348 7.26428 21.1826 6 18 6V6ZM18 27.5997C16.1011 27.5997 14.2448 27.0366 12.6659 25.9816C11.087 24.9266 9.85634 23.4271 9.12965 21.6727C8.40296 19.9183 8.21282 17.9878 8.58328 16.1254C8.95375 14.2629 9.86817 12.5522 11.2109 11.2094C12.5537 9.86666 14.2645 8.95224 16.1269 8.58177C17.9894 8.21131 19.9198 8.40144 21.6742 9.12814C23.4286 9.85483 24.9281 11.0854 25.9831 12.6643C27.0381 14.2433 27.6012 16.0996 27.6012 17.9985C27.6012 20.5449 26.5897 22.987 24.7891 24.7876C22.9885 26.5881 20.5464 27.5997 18 27.5997V27.5997Z" fill="black"/>
<path d="M24.7999 17.9997C24.8003 16.8058 24.4862 15.6329 23.8893 14.599C23.2924 13.565 22.4337 12.7065 21.3996 12.1099L19.9993 14.535C20.8665 15.0365 21.5146 15.8444 21.816 16.7998H14.1833C14.4846 15.8445 15.1325 15.0366 15.9996 14.535L14.5997 12.1099C13.566 12.7069 12.7076 13.5655 12.1109 14.5994C11.5141 15.6333 11.1999 16.806 11.1999 17.9997C11.1999 19.1935 11.5141 20.3662 12.1109 21.4001C12.7076 22.4339 13.566 23.2925 14.5997 23.8896L15.9996 21.4641C15.1326 20.9625 14.4847 20.1548 14.1833 19.1997H21.8168C21.5153 20.1549 20.8672 20.9627 20.0001 21.4641L21.3996 23.8896C22.4337 23.2929 23.2924 22.4344 23.8893 21.4005C24.4862 20.3665 24.8003 19.1936 24.7999 17.9997V17.9997Z" fill="black"/>
</svg>
